<?xml version="1.0" encoding="UTF-8"?>
<svg width="501px" height="100px" viewBox="0 0 501 100" version="1.1" xmlns="http://www.w3.org/2000/svg" xmlns:xlink="http://www.w3.org/1999/xlink">
    <!-- Generator: Sketch 46.2 (44496) - http://www.bohemiancoding.com/sketch -->
    <title>Combined Shape</title>
    <desc>Created with Sketch.</desc>
    <defs></defs>
    <g id="Page-1" stroke="none" stroke-width="1" fill="none" fill-rule="evenodd">
        <g id="homepage-copy-14" transform="translate(-72.000000, -102.000000)" fill="#FFFFFF">
            <g id="logo-1" transform="translate(72.000000, 102.000000)">
                <path d="M429,80.1019229 L429,100 L0,100 L0,0 L429,0 L429,47.9041958 C429.144324,48.2496621 429.250094,48.6240436 429.31731,49.0273438 C429.421477,49.509117 429.47356,50.2773385 429.47356,51.3320312 L429,51.3320312 L429,52.71875 L429.327076,52.71875 C429.289598,53.0346355 429.180573,53.3802366 429,53.7555605 L429,66.6386719 L430.137051,66.6386719 L430.137051,76.1503906 C430.137051,77.4785223 429.941741,78.5266889 429.551114,79.2949219 C429.396525,79.5958188 429.21282,79.864819 429,80.1019229 Z M61.3723849,77 L76,77 L76,0 L60.41841,0 L37.9470014,43.8140845 L15.6875872,0 L0,0 L0,77 L14.6276151,77 L14.6276151,26.028169 L34.0251046,63.9859155 L41.9748954,63.9859155 L61.3723849,26.028169 L61.3723849,77 Z M90,0 L90,65.1910569 C90,69.6156499 91.1942188,73.0232491 93.5826923,75.4139566 C95.9711658,77.8046642 99.346132,79 103.707692,79 C105.715395,79 107.965372,78.7502283 110.457692,78.2506775 C112.950012,77.7511267 115.13076,77.0374933 117,76.1097561 L115.130769,64.6558266 C114.230765,65.0126486 113.278851,65.3337836 112.275,65.6192412 C111.271149,65.9046988 110.388465,66.0474255 109.626923,66.0474255 C105.819212,66.0474255 103.915385,63.8708438 103.915385,59.5176152 L103.915385,0 L90,0 Z M139.239923,78 C143.324397,78 147.158012,77.1454966 150.740883,75.4364641 C154.323754,73.7274316 157.369149,71.2351299 159.877159,67.9594843 L160.199616,71.0570902 C160.557903,73.0509615 161.453608,74.6353532 162.886756,75.8103131 C164.319905,76.9852729 166.397939,77.6083483 169.120921,77.679558 C169.98081,77.679558 171.001913,77.6261515 172.184261,77.519337 C173.366609,77.4125225 174.638509,77.2166988 176,76.93186 L176,64.7550645 C174.566851,64.6838548 173.563662,64.3278117 172.990403,63.6869245 C172.417144,63.0460373 172.130518,61.977908 172.130518,60.4825046 L172.130518,43.0718232 C172.130518,35.5948061 169.891257,29.8803144 165.412668,25.9281768 C160.934079,21.9760392 154.646234,20 146.548944,20 C138.165025,20 130.354483,22.3854887 123.117083,27.1565378 L127.523992,36.2357274 C130.533604,34.1706465 133.471515,32.6040569 136.337812,31.5359116 C139.204109,30.4677663 142.14202,29.9337017 145.151631,29.9337017 C149.307762,29.9337017 152.442728,30.9306223 154.556622,32.9244936 C156.670516,34.9183648 157.727447,37.7667095 157.727447,41.4696133 L157.727447,44.6740331 C155.864354,43.8907266 153.732578,43.2854533 151.332054,42.8581952 C148.93153,42.4309371 146.4773,42.2173112 143.96929,42.2173112 C140.458076,42.2173112 137.23354,42.6623651 134.295585,43.5524862 C131.357631,44.4426073 128.831744,45.6709559 126.71785,47.2375691 C124.603956,48.8041822 122.95586,50.7090127 121.773512,52.9521179 C120.591165,55.195223 120,57.6341182 120,60.2688766 C120,62.8324253 120.48368,65.1823098 121.451056,67.3186004 C122.418431,69.454891 123.761988,71.3241172 125.481766,72.9263352 C127.201544,74.5285531 129.24375,75.774704 131.608445,76.664825 C133.97314,77.5549461 136.516941,78 139.239923,78 Z M142.642857,68 C139.928558,68 137.642866,67.2129708 135.785714,65.6388889 C133.928562,64.0648069 133,62.0884893 133,59.7098765 C133,57.1913454 134.17856,55.1100905 136.535714,53.4660494 C138.892869,51.8220082 141.928553,51 145.642857,51 C147.500009,51 149.428561,51.1923849 151.428571,51.5771605 C153.428581,51.9619361 155.285706,52.4691327 157,53.0987654 L157,59.3950617 C157,60.8642049 156.214294,62.1934097 154.642857,63.382716 C153.428565,64.7819 151.732154,65.9012304 149.553571,66.7407407 C147.374989,67.5802511 145.071441,68 142.642857,68 Z M150.128492,15 L160,0 L146.731844,0 L141,12.3103448 L150.128492,15 Z M208.510345,79 C212.429905,79 216.135615,78.0925766 219.627586,76.2777027 C223.119558,74.4628288 225.89884,71.7761439 227.965517,68.2175676 L228.286207,72.0608108 C228.642531,74.1247851 229.551142,75.7261204 231.012069,76.8648649 C232.472996,78.0036093 234.521826,78.6085582 237.158621,78.6797297 C239.011504,78.6797297 241.29194,78.4306331 244,77.9324324 L244,65.7621622 C242.574706,65.6909906 241.577014,65.3351383 241.006897,64.6945946 C240.436779,64.0540509 240.151724,62.986494 240.151724,61.4918919 L240.151724,0 L225.827586,0 L225.827586,31.8135135 C223.974703,28.6107948 221.391396,26.013073 218.077586,24.0202703 C214.763777,22.0274675 211.075882,21.0310811 207.013793,21.0310811 C203.379292,21.0310811 200.0299,21.7783709 196.965517,23.272973 C193.901134,24.767575 191.264379,26.8315184 189.055172,29.4648649 C186.845966,32.0982114 185.117822,35.1585411 183.87069,38.6459459 C182.623557,42.1333508 182,45.9053851 182,49.9621622 C182,54.0189392 182.659189,57.8087662 183.977586,61.3317568 C185.295984,64.8547473 187.131023,67.9328697 189.482759,70.5662162 C191.834495,73.1995627 194.631593,75.263506 197.874138,76.7581081 C201.116683,78.2527102 204.66205,79 208.510345,79 Z M212.40293,66 C210.207559,66 208.17156,65.5809566 206.294872,64.7428571 C204.418184,63.9047577 202.789384,62.7523883 201.408425,61.2857143 C200.027466,59.8190403 198.947501,58.1079463 198.168498,56.152381 C197.389495,54.1968156 197,52.0666782 197,49.7619048 C197,47.5968146 197.354087,45.5015974 198.062271,43.4761905 C198.770455,41.4507835 199.761898,39.6523888 201.03663,38.0809524 C202.311362,36.509516 203.851639,35.2698458 205.657509,34.3619048 C207.463379,33.4539637 209.428561,33 211.553114,33 C214.527487,33 217.377886,34.0126883 220.104396,36.0380952 C222.830905,38.0635022 224.796087,40.612683 226,43.6857143 L226,56.7809524 C225.504271,58.1079431 224.760689,59.3301531 223.769231,60.447619 C222.777773,61.565085 221.680104,62.542853 220.47619,63.3809524 C219.272277,64.2190518 217.962156,64.8650771 216.545788,65.3190476 C215.129419,65.7730181 213.74848,66 212.40293,66 Z M279.105455,78 C285.292152,78 290.617553,76.6292341 295.081818,73.8876611 C299.546083,71.1460882 302.797566,67.6390637 304.836364,63.3664825 L292.709091,59.9484346 C291.795147,62.2271446 290.090316,64.0607665 287.594545,65.4493554 C285.098775,66.8379443 282.444863,67.5322284 279.632727,67.5322284 C277.804839,67.5322284 276.047281,67.2117896 274.36,66.5709024 C272.672719,65.9300152 271.161219,65.0043032 269.825455,63.7937385 C268.48969,62.5831738 267.400004,61.1233971 266.556364,59.4143646 C265.712723,57.7053322 265.185456,55.7470951 264.974545,53.5395948 L307.683636,53.5395948 C307.824243,52.9699173 307.912121,52.2578312 307.947273,51.4033149 C307.982424,50.5487987 308,49.6586909 308,48.732965 C308,44.9588516 307.349703,41.327212 306.049091,37.8379374 C304.748478,34.3486627 302.850316,31.2866921 300.354545,28.6519337 C297.858775,26.0171753 294.835775,23.916521 291.285455,22.3499079 C287.735134,20.7832948 283.710326,20 279.210909,20 C274.711493,20 270.651533,20.7832948 267.030909,22.3499079 C263.410285,23.916521 260.334558,26.0349774 257.803636,28.7053407 C255.272715,31.375704 253.339401,34.4732789 252.003636,37.9981584 C250.667872,41.5230379 250,45.2792925 250,49.267035 C250,53.1123581 250.685448,56.779602 252.056364,60.2688766 C253.42728,63.7581513 255.378169,66.8201219 257.909091,69.4548803 C260.440013,72.0896387 263.498164,74.1724908 267.083636,75.7034991 C270.669109,77.2345073 274.676341,78 279.105455,78 Z M294,45 L265,45 C265.142158,42.9179383 265.621932,41.0153932 266.439338,39.2923077 C267.256744,37.5692222 268.305141,36.097442 269.584559,34.8769231 C270.863977,33.6564042 272.33884,32.7051316 274.009191,32.0230769 C275.679543,31.3410222 277.474255,31 279.393382,31 C283.302716,31 286.625599,32.2743462 289.362132,34.8230769 C292.098666,37.3718076 293.644606,40.7640814 294,45 Z M328.475728,0 L321,3.60902256 L332.320388,15 L342.679612,15 L354,3.60902256 L346.631068,0 L337.553398,7.10526316 L328.475728,0 Z M314,69.2366412 L314,78 L360,78 L360,67.9541985 L328.947368,67.9541985 L359.473684,30.7633588 L359.473684,22 L315.157895,22 L315.157895,32.0458015 L344.631579,32.0458015 L314,69.2366412 Z M385.198242,25.0976562 C384.459306,24.5247367 383.500657,24.2382812 382.322266,24.2382812 C380.94205,24.2382812 379.805994,24.7493438 378.914062,25.7714844 C378.022131,26.7936249 377.576172,28.2226471 377.576172,30.0585938 C377.576172,31.5559971 377.983069,32.804357 378.796875,33.8037109 C379.610681,34.8030649 380.701165,35.3027344 382.068359,35.3027344 C383.285813,35.3027344 384.285152,34.9820996 385.066406,34.3408203 C385.84766,33.6995411 386.335937,32.6855538 386.53125,31.2988281 L384.822266,31.2988281 C384.659504,32.0735716 384.364911,32.683917 383.938477,33.1298828 C383.512042,33.5758486 382.934248,33.7988281 382.205078,33.7988281 C381.254553,33.7988281 380.557945,33.4407588 380.115234,32.7246094 C379.672524,32.00846 379.451172,31.1263073 379.451172,30.078125 C379.451172,29.0364531 379.60742,28.1608108 379.919922,27.4511719 C380.401695,26.3574164 381.202468,25.8105469 382.322266,25.8105469 C383.142582,25.8105469 383.738279,26.0237609 384.109375,26.4501953 C384.480471,26.8766297 384.718098,27.4121062 384.822266,28.0566406 L386.53125,28.0566406 C386.38151,26.656894 385.937178,25.6705758 385.198242,25.0976562 Z M383.210938,23.1542969 L385.203125,20.3320312 L383.601562,20.3320312 L382.283203,22.2070312 L380.964844,20.3320312 L379.373047,20.3320312 L381.355469,23.1542969 L383.210938,23.1542969 Z M394.803306,24.8291016 C394.106688,24.4807925 393.387294,24.3066406 392.645103,24.3066406 C391.173741,24.3066406 389.982347,24.8307239 389.070884,25.8789062 C388.159421,26.9270886 387.703696,28.2910072 387.703696,29.9707031 C387.703696,31.6764408 388.156166,33.002925 389.061118,33.9501953 C389.966071,34.8974657 391.069575,35.3710938 392.371665,35.3710938 C392.905522,35.3710938 393.384033,35.3190109 393.807212,35.2148438 C394.594976,35.0325512 395.255777,34.6809922 395.789634,34.1601562 C396.108646,33.8606756 396.396729,33.4749373 396.653892,33.0029297 C396.911054,32.5309221 397.06242,32.1028665 397.107993,31.71875 L395.379478,31.71875 C395.249269,32.1809919 395.027917,32.5878889 394.715415,32.9394531 C394.168537,33.5449249 393.436123,33.8476562 392.51815,33.8476562 C391.535072,33.8476562 390.809168,33.5270214 390.340415,32.8857422 C389.871663,32.2444629 389.621014,31.3932345 389.588462,30.3320312 L397.254478,30.3320312 C397.254478,29.2773385 397.202395,28.509117 397.098228,28.0273438 C396.98104,27.3242152 396.746667,26.708987 396.395103,26.1816406 C396.030518,25.6282524 395.499924,25.1774106 394.803306,24.8291016 Z M395.447837,28.9355469 L389.63729,28.9355469 C389.669842,28.0371049 389.959553,27.2965524 390.506431,26.7138672 C391.053309,26.131182 391.730385,25.8398438 392.537681,25.8398438 C393.663989,25.8398438 394.468017,26.2630166 394.94979,27.109375 C395.210208,27.5651064 395.376222,28.1738243 395.447837,28.9355469 Z M400.458174,31.71875 L398.768721,31.71875 C398.814294,32.7604219 399.16097,33.6344366 399.80876,34.3408203 C400.45655,35.0472041 401.558427,35.4003906 403.114424,35.4003906 C404.559744,35.4003906 405.635579,35.0618523 406.341963,34.3847656 C407.048347,33.7076789 407.401533,32.9036505 407.401533,31.9726562 C407.401533,31.0091098 407.05974,30.3027366 406.376143,29.8535156 C405.946453,29.5670559 405.100108,29.2708349 403.83708,28.9648438 L402.674971,28.6816406 C402.167156,28.5579421 401.783045,28.4147144 401.522627,28.2519531 C401.073406,27.9785143 400.848799,27.6139346 400.848799,27.1582031 C400.848799,26.7415344 401.019696,26.4062513 401.361494,26.1523438 C401.703293,25.8984362 402.206218,25.7714844 402.870283,25.7714844 C403.866382,25.7714844 404.566245,26.0026019 404.969893,26.4648438 C405.21729,26.7903662 405.357262,27.1516907 405.389815,27.5488281 L407.049971,27.5488281 C407.062992,26.8717414 406.851405,26.2402373 406.415205,25.6542969 C405.718587,24.7298131 404.582531,24.2675781 403.007002,24.2675781 C401.802569,24.2675781 400.84392,24.5735646 400.131026,25.1855469 C399.418131,25.7975291 399.06169,26.5983023 399.06169,27.5878906 C399.06169,28.4277386 399.43929,29.0852841 400.194502,29.5605469 C400.617681,29.8339857 401.275227,30.0813791 402.167158,30.3027344 L403.563643,30.6542969 C404.312345,30.8430999 404.813642,31.0091139 405.067549,31.1523438 C405.464687,31.3867199 405.663252,31.7285134 405.663252,32.1777344 C405.663252,32.7701853 405.415859,33.2080064 404.921065,33.4912109 C404.426271,33.7744155 403.85336,33.9160156 403.202315,33.9160156 C402.108559,33.9160156 401.340338,33.6328153 400.897627,33.0664062 C400.656741,32.7539047 400.510258,32.3046904 400.458174,31.71875 Z M409.374761,20.6542969 L409.374761,35 L411.064214,35 L411.064214,31.0742188 L412.538824,29.7265625 L415.800542,35 L418.046636,35 L413.818121,28.4570312 L417.822027,24.5410156 L415.575933,24.5410156 L411.064214,28.984375 L411.064214,20.6542969 L409.374761,20.6542969 Z M425.962247,32.5439453 C425.529302,33.4261112 424.730156,33.8671875 423.564786,33.8671875 C422.503582,33.8671875 421.728851,33.4960975 421.240567,32.7539062 C420.752283,32.011715 420.508145,31.0839899 420.508145,29.9707031 C420.508145,28.8118432 420.752283,27.8222697 421.240567,27.0019531 C421.728851,26.1816365 422.510093,25.7714844 423.584317,25.7714844 C424.795261,25.7714844 425.648117,26.2532504 426.142911,27.2167969 C426.455412,27.8287791 426.611661,28.623042 426.611661,29.5996094 C426.611661,30.6803439 426.395192,31.6617794 425.962247,32.5439453 Z M427.051114,25.5859375 C426.12012,24.6874955 424.980808,24.2382812 423.633145,24.2382812 C422.129231,24.2382812 420.931327,24.7591094 420.039395,25.8007812 C419.147464,26.8424531 418.701504,28.2421787 418.701504,30 C418.701504,31.6406332 419.124677,32.9475863 419.971036,33.9208984 C420.817394,34.8942106 421.959961,35.3808594 423.39877,35.3808594 C425.124039,35.3808594 426.396813,34.8307347 427.217129,33.7304688 C428.037446,32.6302028 428.447598,31.2369876 428.447598,29.5507812 C428.447598,27.8059809 427.982108,26.4843795 427.051114,25.5859375 Z M430.401295,20.6054688 L432.110279,20.6054688 L432.110279,25.8105469 C432.494396,25.3092423 432.953375,24.9267591 433.487232,24.6630859 C434.021089,24.3994127 434.60051,24.2675781 435.225513,24.2675781 C436.527603,24.2675781 437.583908,24.7151648 438.394459,25.6103516 C439.20501,26.5055383 439.610279,27.8255121 439.610279,29.5703125 C439.610279,31.2239666 439.209892,32.5976508 438.409107,33.6914062 C437.608322,34.7851617 436.498307,35.3320312 435.079029,35.3320312 C434.284754,35.3320312 433.614188,35.1399759 433.06731,34.7558594 C432.741788,34.5279937 432.393484,34.163414 432.022388,33.6621094 L432.022388,35 L430.401295,35 L430.401295,20.6054688 Z M437.105396,32.6464844 C437.577404,31.8912723 437.813404,30.8951885 437.813404,29.6582031 C437.813404,28.5579372 437.577404,27.646488 437.105396,26.9238281 C436.633389,26.2011683 435.938409,25.8398438 435.020435,25.8398438 C434.21965,25.8398438 433.51816,26.1360647 432.915943,26.7285156 C432.313727,27.3209665 432.012623,28.2975192 432.012623,29.6582031 C432.012623,30.641281 432.136319,31.438799 432.383717,32.0507812 C432.845958,33.2031308 433.70858,33.7792969 434.971607,33.7792969 C435.922133,33.7792969 436.633389,33.4016965 437.105396,32.6464844 Z M441.71046,24.5410156 L443.380382,24.5410156 L443.380382,26.3476562 C443.517101,25.996092 443.852384,25.5680364 444.386241,25.0634766 C444.920098,24.5589167 445.535326,24.3066406 446.231944,24.3066406 C446.264496,24.3066406 446.319834,24.3098958 446.39796,24.3164062 C446.476085,24.3229167 446.609547,24.3359374 446.79835,24.3554688 L446.79835,26.2109375 C446.694183,26.1914062 446.598156,26.1783854 446.510265,26.171875 C446.422373,26.1653646 446.326346,26.1621094 446.222179,26.1621094 C445.336757,26.1621094 444.656426,26.4469373 444.181163,27.0166016 C443.7059,27.5862659 443.468272,28.2421838 443.468272,28.984375 L443.468272,35 L441.71046,35 L441.71046,24.5410156 Z M453.927828,28.6621094 C454.331476,28.6100258 454.601656,28.4407566 454.738375,28.1542969 C454.8165,27.9980461 454.855563,27.773439 454.855563,27.4804688 C454.855563,26.8815074 454.642348,26.4469415 454.215914,26.1767578 C453.78948,25.9065742 453.179134,25.7714844 452.384859,25.7714844 C451.466886,25.7714844 450.815851,26.0188777 450.431734,26.5136719 C450.21689,26.7871107 450.076917,27.1940077 450.011813,27.734375 L448.371188,27.734375 C448.40374,26.4453061 448.82203,25.5485051 449.62607,25.0439453 C450.430111,24.5393855 451.362719,24.2871094 452.423922,24.2871094 C453.654397,24.2871094 454.653736,24.521482 455.421969,24.9902344 C456.183691,25.4589867 456.564547,26.1881461 456.564547,27.1777344 L456.564547,33.203125 C456.564547,33.3854176 456.601981,33.5319005 456.676852,33.6425781 C456.751722,33.7532558 456.909598,33.8085938 457.150484,33.8085938 C457.22861,33.8085938 457.3165,33.803711 457.414156,33.7939453 C457.511813,33.7841796 457.615979,33.7695313 457.726656,33.75 L457.726656,35.0488281 C457.453217,35.1269535 457.244886,35.1757812 457.101656,35.1953125 C456.958426,35.2148438 456.763116,35.2246094 456.515719,35.2246094 C455.910247,35.2246094 455.470798,35.0097678 455.197359,34.5800781 C455.054129,34.3522124 454.953219,34.02995 454.894625,33.6132812 C454.53655,34.0820336 454.022233,34.4889306 453.351656,34.8339844 C452.68108,35.1790382 451.942155,35.3515625 451.134859,35.3515625 C450.164802,35.3515625 449.372167,35.0569691 448.75693,34.4677734 C448.141692,33.8785778 447.834078,33.1412805 447.834078,32.2558594 C447.834078,31.2858024 448.136809,30.5338568 448.742281,30 C449.347753,29.4661432 450.142016,29.1373704 451.125094,29.0136719 L453.927828,28.6621094 Z M450.226656,33.4179688 C450.597752,33.710939 451.037201,33.8574219 451.545016,33.8574219 C452.163508,33.8574219 452.762461,33.7141941 453.341891,33.4277344 C454.318458,32.9524716 454.806734,32.1744846 454.806734,31.09375 L454.806734,29.6777344 C454.59189,29.8144538 454.3152,29.928385 453.976656,30.0195312 C453.638113,30.1106775 453.306085,30.1757811 452.980563,30.2148438 L451.916109,30.3515625 C451.278085,30.4361983 450.799575,30.5696605 450.480563,30.7519531 C449.940195,31.0579442 449.670016,31.5462206 449.670016,32.2167969 C449.670016,32.7246119 449.855561,33.1249985 450.226656,33.4179688 Z M459.79754,21.6210938 L461.574884,21.6210938 L461.574884,24.5410156 L463.244806,24.5410156 L463.244806,25.9765625 L461.574884,25.9765625 L461.574884,32.8027344 C461.574884,33.1673195 461.698581,33.4114577 461.945978,33.5351562 C462.082697,33.6067712 462.310559,33.6425781 462.629571,33.6425781 C462.714207,33.6425781 462.805352,33.6409505 462.903009,33.6376953 C463.000666,33.6344401 463.114597,33.6263021 463.244806,33.6132812 L463.244806,35 C463.042982,35.058594 462.833023,35.1009113 462.614923,35.1269531 C462.396823,35.1529949 462.160823,35.1660156 461.906915,35.1660156 C461.086599,35.1660156 460.529964,34.9560568 460.236993,34.5361328 C459.944023,34.1162088 459.79754,33.5709669 459.79754,32.9003906 L459.79754,25.9765625 L458.381525,25.9765625 L458.381525,24.5410156 L459.79754,24.5410156 L459.79754,21.6210938 Z M465.052018,24.5410156 L466.72194,24.5410156 L466.72194,26.3476562 C466.858659,25.996092 467.193942,25.5680364 467.727799,25.0634766 C468.261656,24.5589167 468.876884,24.3066406 469.573502,24.3066406 C469.606054,24.3066406 469.661392,24.3098958 469.739518,24.3164062 C469.817643,24.3229167 469.951105,24.3359374 470.139908,24.3554688 L470.139908,26.2109375 C470.035741,26.1914062 469.939714,26.1783854 469.851823,26.171875 C469.763931,26.1653646 469.667904,26.1621094 469.563737,26.1621094 C468.678316,26.1621094 467.997984,26.4469373 467.522721,27.0166016 C467.047458,27.5862659 466.80983,28.2421838 466.80983,28.984375 L466.80983,35 L465.052018,35 L465.052018,24.5410156 Z M472.708839,31.71875 C472.760923,32.3046904 472.907406,32.7539047 473.148292,33.0664062 C473.591003,33.6328153 474.359224,33.9160156 475.45298,33.9160156 C476.104025,33.9160156 476.676936,33.7744155 477.17173,33.4912109 C477.666524,33.2080064 477.913917,32.7701853 477.913917,32.1777344 C477.913917,31.7285134 477.715352,31.3867199 477.318214,31.1523438 C477.064307,31.0091139 476.56301,30.8430999 475.814308,30.6542969 L474.417824,30.3027344 C473.525892,30.0813791 472.868347,29.8339857 472.445167,29.5605469 C471.689955,29.0852841 471.312355,28.4277386 471.312355,27.5878906 C471.312355,26.5983023 471.668797,25.7975291 472.381691,25.1855469 C473.094585,24.5735646 474.053234,24.2675781 475.257667,24.2675781 C476.833196,24.2675781 477.969252,24.7298131 478.665871,25.6542969 C479.102071,26.2402373 479.313657,26.8717414 479.300636,27.5488281 L477.64048,27.5488281 C477.607928,27.1516907 477.467955,26.7903662 477.220558,26.4648438 C476.81691,26.0026019 476.117047,25.7714844 475.120949,25.7714844 C474.456883,25.7714844 473.953958,25.8984362 473.61216,26.1523438 C473.270361,26.4062513 473.099464,26.7415344 473.099464,27.1582031 C473.099464,27.6139346 473.324071,27.9785143 473.773292,28.2519531 C474.03371,28.4147144 474.417821,28.5579421 474.925636,28.6816406 L476.087746,28.9648438 C477.350773,29.2708349 478.197118,29.5670559 478.626808,29.8535156 C479.310405,30.3027366 479.652199,31.0091098 479.652199,31.9726562 C479.652199,32.9036505 479.299012,33.7076789 478.592628,34.3847656 C477.886245,35.0618523 476.810409,35.4003906 475.365089,35.4003906 C473.809092,35.4003906 472.707215,35.0472041 472.059425,34.3408203 C471.411636,33.6344366 471.064959,32.7604219 471.019386,31.71875 L472.708839,31.71875 Z M481.625426,20.6542969 L483.314879,20.6542969 L483.314879,28.984375 L487.826598,24.5410156 L490.072692,24.5410156 L486.068786,28.4570312 L490.297301,35 L488.051208,35 L484.789489,29.7265625 L483.314879,31.0742188 L483.314879,35 L481.625426,35 L481.625426,20.6542969 Z M498.178732,24.8291016 C498.87535,25.1774106 499.405944,25.6282524 499.770529,26.1816406 C500.122093,26.708987 500.356466,27.3242152 500.473654,28.0273438 C500.577821,28.509117 500.629904,29.2773385 500.629904,30.3320312 L492.963888,30.3320312 C492.996441,31.3932345 493.247089,32.2444629 493.715842,32.8857422 C494.184594,33.5270214 494.910498,33.8476562 495.893576,33.8476562 C496.811549,33.8476562 497.543964,33.5449249 498.090842,32.9394531 C498.403343,32.5878889 498.624695,32.1809919 498.754904,31.71875 L500.48342,31.71875 C500.437846,32.1028665 500.286481,32.5309221 500.029318,33.0029297 C499.772155,33.4749373 499.484072,33.8606756 499.16506,34.1601562 C498.631203,34.6809922 497.970403,35.0325512 497.182638,35.2148438 C496.759459,35.3190109 496.280948,35.3710938 495.747092,35.3710938 C494.445002,35.3710938 493.341497,34.8974657 492.436545,33.9501953 C491.531592,33.002925 491.079123,31.6764408 491.079123,29.9707031 C491.079123,28.2910072 491.534847,26.9270886 492.44631,25.8789062 C493.357773,24.8307239 494.549167,24.3066406 496.020529,24.3066406 C496.76272,24.3066406 497.482114,24.4807925 498.178732,24.8291016 Z M498.823263,28.9355469 C498.751648,28.1738243 498.585634,27.5651064 498.325217,27.109375 C497.843443,26.2630166 497.039415,25.8398438 495.913107,25.8398438 C495.105811,25.8398438 494.428735,26.131182 493.881857,26.7138672 C493.334979,27.2965524 493.045269,28.0371049 493.012717,28.9355469 L498.823263,28.9355469 Z M498.051779,20.3320312 L495.444357,23.1542969 L494.096701,23.1542969 L495.88381,20.3320312 L498.051779,20.3320312 Z M385.198242,46.0976562 C384.459306,45.5247367 383.500657,45.2382812 382.322266,45.2382812 C380.94205,45.2382812 379.805994,45.7493438 378.914062,46.7714844 C378.022131,47.7936249 377.576172,49.2226471 377.576172,51.0585938 C377.576172,52.5559971 377.983069,53.804357 378.796875,54.8037109 C379.610681,55.8030649 380.701165,56.3027344 382.068359,56.3027344 C383.285813,56.3027344 384.285152,55.9820996 385.066406,55.3408203 C385.84766,54.6995411 386.335937,53.6855538 386.53125,52.2988281 L384.822266,52.2988281 C384.659504,53.0735716 384.364911,53.683917 383.938477,54.1298828 C383.512042,54.5758486 382.934248,54.7988281 382.205078,54.7988281 C381.254553,54.7988281 380.557945,54.4407588 380.115234,53.7246094 C379.672524,53.00846 379.451172,52.1263073 379.451172,51.078125 C379.451172,50.0364531 379.60742,49.1608108 379.919922,48.4511719 C380.401695,47.3574164 381.202468,46.8105469 382.322266,46.8105469 C383.142582,46.8105469 383.738279,47.0237609 384.109375,47.4501953 C384.480471,47.8766297 384.718098,48.4121062 384.822266,49.0566406 L386.53125,49.0566406 C386.38151,47.656894 385.937178,46.6705758 385.198242,46.0976562 Z M388.846275,45.5898438 L388.846275,56 L390.633384,56 L390.633384,45.5898438 L388.846275,45.5898438 Z M391.961509,41.3320312 L389.79354,41.3320312 L388.006431,44.1542969 L389.354087,44.1542969 L391.961509,41.3320312 Z M393.895674,45.5410156 L393.895674,56 L395.653487,56 L395.653487,49.984375 C395.653487,49.2421838 395.891114,48.5862659 396.366377,48.0166016 C396.84164,47.4469373 397.521972,47.1621094 398.407393,47.1621094 C398.51156,47.1621094 398.607588,47.1653646 398.695479,47.171875 C398.78337,47.1783854 398.879398,47.1914062 398.983565,47.2109375 L398.983565,45.3554688 C398.794762,45.3359374 398.661299,45.3229167 398.583174,45.3164062 C398.505049,45.3098958 398.449711,45.3066406 398.417158,45.3066406 C397.72054,45.3066406 397.105312,45.5589167 396.571455,46.0634766 C396.037599,46.5680364 395.702315,46.996092 395.565596,47.3476562 L395.565596,45.5410156 L393.895674,45.5410156 Z M400.468511,41.6542969 L400.468511,56 L402.157964,56 L402.157964,52.0742187 L403.632574,50.7265625 L406.894292,56 L409.140386,56 L404.911871,49.4570312 L408.915777,45.5410156 L406.669683,45.5410156 L402.157964,49.984375 L402.157964,41.6542969 L400.468511,41.6542969 Z M411.36752,45.5410156 L409.326504,45.5410156 L413.183926,56 L415.058926,56 L419.004239,45.5410156 L417.080411,45.5410156 L414.160489,54.0566406 L411.36752,45.5410156 Z M429,47.9041958 C428.892704,47.6473632 428.764099,47.4065119 428.614185,47.1816406 C428.2496,46.6282524 427.719006,46.1774106 427.022388,45.8291016 C426.32577,45.4807925 425.606376,45.3066406 424.864185,45.3066406 C423.392824,45.3066406 422.201429,45.8307239 421.289967,46.8789062 C420.378504,47.9270886 419.922779,49.2910072 419.922779,50.9707031 C419.922779,52.6764408 420.375248,54.002925 421.280201,54.9501953 C422.185153,55.8974657 423.288658,56.3710938 424.590748,56.3710938 C425.124605,56.3710938 425.603115,56.3190109 426.026295,56.2148438 C426.814059,56.0325512 427.47486,55.6809922 428.008717,55.1601562 C428.327729,54.8606756 428.615812,54.4749373 428.872974,54.0029297 C428.918654,53.9190865 428.960996,53.8366302 429,53.7555605 L429,52.71875 L427.59856,52.71875 C427.468351,53.1809919 427.246999,53.5878889 426.934498,53.9394531 C426.38762,54.5449249 425.655205,54.8476562 424.737232,54.8476562 C423.754154,54.8476562 423.02825,54.5270214 422.559498,53.8857422 C422.090745,53.2444629 421.840097,52.3932345 421.807545,51.3320312 L429,51.3320312 L429,47.9041958 Z M427.66692,49.9355469 L421.856373,49.9355469 C421.888925,49.0371049 422.178636,48.2965524 422.725513,47.7138672 C423.272391,47.131182 423.949468,46.8398438 424.756763,46.8398438 C425.883071,46.8398438 426.6871,47.2630166 427.168873,48.109375 C427.429291,48.5651064 427.595305,49.1738243 427.66692,49.9355469 Z M384.802734,66.8291016 C384.106116,66.4807925 383.386722,66.3066406 382.644531,66.3066406 C381.17317,66.3066406 379.981775,66.8307239 379.070312,67.8789062 C378.15885,68.9270886 377.703125,70.2910072 377.703125,71.9707031 C377.703125,73.6764408 378.155594,75.002925 379.060547,75.9501953 C379.965499,76.8974657 381.069004,77.3710938 382.371094,77.3710938 C382.904951,77.3710938 383.383461,77.3190109 383.806641,77.2148438 C384.594405,77.0325512 385.255206,76.6809922 385.789062,76.1601562 C386.108075,75.8606756 386.396158,75.4749373 386.65332,75.0029297 C386.910483,74.5309221 387.061849,74.1028665 387.107422,73.71875 L385.378906,73.71875 C385.248697,74.1809919 385.027345,74.5878889 384.714844,74.9394531 C384.167966,75.5449249 383.435551,75.8476562 382.517578,75.8476562 C381.5345,75.8476562 380.808596,75.5270214 380.339844,74.8857422 C379.871091,74.2444629 379.620443,73.3932345 379.587891,72.3320312 L387.253906,72.3320312 C387.253906,71.2773385 387.201823,70.509117 387.097656,70.0273438 C386.980468,69.3242152 386.746096,68.708987 386.394531,68.1816406 C386.029946,67.6282524 385.499352,67.1774106 384.802734,66.8291016 Z M385.447266,70.9355469 L379.636719,70.9355469 C379.669271,70.0371049 379.958982,69.2965524 380.505859,68.7138672 C381.052737,68.131182 381.729814,67.8398438 382.537109,67.8398438 C383.663417,67.8398438 384.467446,68.2630166 384.949219,69.109375 C385.209637,69.5651064 385.375651,70.1738243 385.447266,70.9355469 Z M390.272056,66.5410156 L388.23104,66.5410156 L392.088462,77 L393.963462,77 L397.908775,66.5410156 L395.984946,66.5410156 L393.065025,75.0566406 L390.272056,66.5410156 Z M401.317549,75.4179688 C400.946454,75.1249985 400.760908,74.7246119 400.760908,74.2167969 C400.760908,73.5462206 401.031088,73.0579442 401.571455,72.7519531 C401.890467,72.5696605 402.368978,72.4361983 403.007002,72.3515625 L404.071455,72.2148438 C404.396978,72.1757811 404.729006,72.1106775 405.067549,72.0195312 C405.406092,71.928385 405.682782,71.8144538 405.897627,71.6777344 L405.897627,73.09375 C405.897627,74.1744846 405.409351,74.9524716 404.432783,75.4277344 C403.853354,75.7141941 403.254401,75.8574219 402.635908,75.8574219 C402.128093,75.8574219 401.688645,75.710939 401.317549,75.4179688 Z M405.018721,70.6621094 L402.215987,71.0136719 C401.232909,71.1373704 400.438646,71.4661432 399.833174,72 C399.227702,72.5338568 398.924971,73.2858024 398.924971,74.2558594 C398.924971,75.1412805 399.232585,75.8785778 399.847823,76.4677734 C400.46306,77.0569691 401.255695,77.3515625 402.225752,77.3515625 C403.033048,77.3515625 403.771973,77.1790382 404.442549,76.8339844 C405.113125,76.4889306 405.627443,76.0820336 405.985518,75.6132812 C406.044112,76.02995 406.145022,76.3522124 406.288252,76.5800781 C406.561691,77.0097678 407.00114,77.2246094 407.606612,77.2246094 C407.854009,77.2246094 408.049319,77.2148438 408.192549,77.1953125 C408.335779,77.1757812 408.54411,77.1269535 408.817549,77.0488281 L408.817549,75.75 C408.706871,75.7695313 408.602706,75.7841796 408.505049,75.7939453 C408.407392,75.803711 408.319503,75.8085938 408.241377,75.8085938 C408.000491,75.8085938 407.842615,75.7532558 407.767744,75.6425781 C407.692874,75.5319005 407.65544,75.3854176 407.65544,75.203125 L407.65544,69.1777344 C407.65544,68.1881461 407.274584,67.4589867 406.512862,66.9902344 C405.744629,66.521482 404.74529,66.2871094 403.514815,66.2871094 C402.453612,66.2871094 401.521004,66.5393855 400.716963,67.0439453 C399.912923,67.5485051 399.494633,68.4453061 399.46208,69.734375 L401.102705,69.734375 C401.16781,69.1940077 401.307782,68.7871107 401.522627,68.5136719 C401.906744,68.0188777 402.557779,67.7714844 403.475752,67.7714844 C404.270027,67.7714844 404.880372,67.9065742 405.306807,68.1767578 C405.733241,68.4469415 405.946455,68.8815074 405.946455,69.4804688 C405.946455,69.773439 405.907393,69.9980461 405.829268,70.1542969 C405.692548,70.4407566 405.422369,70.6100258 405.018721,70.6621094 Z M410.536871,66.5410156 L410.536871,77 L412.294683,77 L412.294683,71.5214844 C412.294683,70.8378872 412.338628,70.3121763 412.426519,69.9443359 C412.51441,69.5764956 412.704838,69.2200538 412.997808,68.875 C413.362393,68.4453104 413.785566,68.1588549 414.267339,68.015625 C414.534268,67.9309892 414.876061,67.8886719 415.29273,67.8886719 C416.113047,67.8886719 416.679447,68.2141895 416.991949,68.8652344 C417.180752,69.2558613 417.275152,69.7701791 417.275152,70.4082031 L417.275152,77 L419.062261,77 L419.062261,70.2910156 C419.062261,69.2363229 418.919033,68.4257841 418.632574,67.859375 C418.111738,66.8242136 417.109144,66.3066406 415.624761,66.3066406 C414.947674,66.3066406 414.332446,66.4401028 413.779058,66.7070312 C413.22567,66.9739597 412.701587,67.4134084 412.206792,68.0253906 L412.206792,66.5410156 L410.536871,66.5410156 Z M429,80.1019229 L429,66.6386719 L428.515958,66.6386719 L428.515958,67.9570312 C428.170904,67.5208312 427.832365,67.1888032 427.500333,66.9609375 C426.88835,66.5572896 426.172212,66.3554688 425.351895,66.3554688 C424.140952,66.3554688 423.107433,66.8470003 422.251309,67.8300781 C421.395185,68.813156 420.967129,70.1803298 420.967129,71.9316406 C420.967129,73.7871187 421.39193,75.116858 422.241544,75.9208984 C423.091157,76.7249389 424.082358,77.1269531 425.215176,77.1269531 C426.028982,77.1269531 426.683273,76.9967461 427.178067,76.7363281 C427.672861,76.4759102 428.096034,76.0787787 428.447598,75.5449219 C428.46713,76.9837312 428.353198,77.9830701 428.105801,78.5429688 C427.689133,79.4934943 426.80698,79.96875 425.459317,79.96875 C424.606448,79.96875 423.981454,79.7734395 423.584317,79.3828125 C423.330409,79.128905 423.16114,78.7675805 423.076504,78.2988281 L421.289395,78.2988281 C421.380541,79.3730522 421.810225,80.1624324 422.578458,80.6669922 C423.346691,81.171552 424.293947,81.4238281 425.420254,81.4238281 C427.015743,81.4238281 428.208985,80.9831965 429,80.1019229 Z M427.715176,68.8457031 C428.249033,69.4707063 428.515958,70.4309831 428.515958,71.7265625 C428.515958,72.5859418 428.37273,73.3378874 428.08627,73.9824219 C427.571945,75.1217505 426.683282,75.6914062 425.420254,75.6914062 C424.612959,75.6914062 423.970062,75.3837921 423.491544,74.7685547 C423.013026,74.1533172 422.77377,73.2565163 422.77377,72.078125 C422.77377,71.0755158 422.894212,70.2649771 423.135098,69.6464844 C423.59083,68.4876244 424.437175,67.9082031 425.674161,67.9082031 C426.500988,67.9082031 427.18132,68.2207 427.715176,68.8457031 Z M439.297779,66.8291016 C439.994397,67.1774106 440.524991,67.6282524 440.889576,68.1816406 C441.24114,68.708987 441.475513,69.3242152 441.592701,70.0273438 C441.696868,70.509117 441.748951,71.2773385 441.748951,72.3320312 L434.082935,72.3320312 C434.115488,73.3932345 434.366136,74.2444629 434.834888,74.8857422 C435.303641,75.5270214 436.029545,75.8476562 437.012623,75.8476562 C437.930596,75.8476562 438.663011,75.5449249 439.209888,74.9394531 C439.52239,74.5878889 439.743742,74.1809919 439.873951,73.71875 L441.602467,73.71875 C441.556893,74.1028665 441.405528,74.5309221 441.148365,75.0029297 C440.891202,75.4749373 440.603119,75.8606756 440.284107,76.1601562 C439.75025,76.6809922 439.08945,77.0325512 438.301685,77.2148438 C437.878506,77.3190109 437.399995,77.3710938 436.866138,77.3710938 C435.564049,77.3710938 434.460544,76.8974657 433.555592,75.9501953 C432.650639,75.002925 432.19817,73.6764408 432.19817,71.9707031 C432.19817,70.2910072 432.653894,68.9270886 433.565357,67.8789062 C434.47682,66.8307239 435.668214,66.3066406 437.139576,66.3066406 C437.881767,66.3066406 438.601161,66.4807925 439.297779,66.8291016 Z M439.94231,70.9355469 C439.870695,70.1738243 439.704681,69.5651064 439.444263,69.109375 C438.96249,68.2630166 438.158462,67.8398438 437.032154,67.8398438 C436.224858,67.8398438 435.547782,68.131182 435.000904,68.7138672 C434.454026,69.2965524 434.164316,70.0371049 434.131763,70.9355469 L439.94231,70.9355469 Z M443.956554,62.6542969 L445.714366,62.6542969 L445.714366,77 L443.956554,77 L443.956554,62.6542969 Z M448.351656,66.5898438 L450.138766,66.5898438 L450.138766,77 L448.351656,77 L448.351656,66.5898438 Z M448.351656,62.6542969 L450.138766,62.6542969 L450.138766,64.6464844 L448.351656,64.6464844 L448.351656,62.6542969 Z M459.704767,67.0976562 C460.443703,67.6705758 460.888034,68.656894 461.037775,70.0566406 L459.32879,70.0566406 C459.224623,69.4121062 458.986995,68.8766297 458.6159,68.4501953 C458.244804,68.0237609 457.649107,67.8105469 456.82879,67.8105469 C455.708993,67.8105469 454.90822,68.3574164 454.426446,69.4511719 C454.113945,70.1608108 453.957696,71.0364531 453.957696,72.078125 C453.957696,73.1263073 454.179048,74.00846 454.621759,74.7246094 C455.064469,75.4407588 455.761077,75.7988281 456.711603,75.7988281 C457.440773,75.7988281 458.018567,75.5758486 458.445001,75.1298828 C458.871436,74.683917 459.166029,74.0735716 459.32879,73.2988281 L461.037775,73.2988281 C460.842461,74.6855538 460.354185,75.6995411 459.572931,76.3408203 C458.791677,76.9820996 457.792338,77.3027344 456.574884,77.3027344 C455.20769,77.3027344 454.117206,76.8030649 453.3034,75.8037109 C452.489593,74.804357 452.082696,73.5559971 452.082696,72.0585938 C452.082696,70.2226471 452.528656,68.7936249 453.420587,67.7714844 C454.312519,66.7493438 455.448575,66.2382812 456.82879,66.2382812 C458.007181,66.2382812 458.965831,66.5247367 459.704767,67.0976562 Z M462.757096,62.6542969 L464.446549,62.6542969 L464.446549,70.984375 L468.958268,66.5410156 L471.204362,66.5410156 L467.200455,70.4570312 L471.428971,77 L469.182877,77 L465.921158,71.7265625 L464.446549,73.0742188 L464.446549,77 L462.757096,77 L462.757096,62.6542969 Z M479.310402,66.8291016 C480.00702,67.1774106 480.537614,67.6282524 480.902199,68.1816406 C481.253763,68.708987 481.488136,69.3242152 481.605324,70.0273438 C481.709491,70.509117 481.761574,71.2773385 481.761574,72.3320312 L474.095558,72.3320312 C474.12811,73.3932345 474.378759,74.2444629 474.847511,74.8857422 C475.316264,75.5270214 476.042168,75.8476562 477.025246,75.8476562 C477.943219,75.8476562 478.675633,75.5449249 479.222511,74.9394531 C479.535013,74.5878889 479.756365,74.1809919 479.886574,73.71875 L481.615089,73.71875 C481.569516,74.1028665 481.41815,74.5309221 481.160988,75.0029297 C480.903825,75.4749373 480.615742,75.8606756 480.29673,76.1601562 C479.762873,76.6809922 479.102072,77.0325512 478.314308,77.2148438 C477.891129,77.3190109 477.412618,77.3710938 476.878761,77.3710938 C475.576671,77.3710938 474.473167,76.8974657 473.568214,75.9501953 C472.663262,75.002925 472.210792,73.6764408 472.210792,71.9707031 C472.210792,70.2910072 472.666517,68.9270886 473.57798,67.8789062 C474.489443,66.8307239 475.680837,66.3066406 477.152199,66.3066406 C477.89439,66.3066406 478.613784,66.4807925 479.310402,66.8291016 Z M479.954933,70.9355469 C479.883318,70.1738243 479.717304,69.5651064 479.456886,69.109375 C478.975113,68.2630166 478.171085,67.8398438 477.044777,67.8398438 C476.237481,67.8398438 475.560405,68.131182 475.013527,68.7138672 C474.466649,69.2965524 474.176938,70.0371049 474.144386,70.9355469 L479.954933,70.9355469 Z M479.183449,62.3320312 L476.576027,65.1542969 L475.228371,65.1542969 L477.01548,62.3320312 L479.183449,62.3320312 Z" id="Combined-Shape"></path>
            </g>
        </g>
    </g>
</svg>